<svg xmlns="http://www.w3.org/2000/svg" xmlns:xlink="http://www.w3.org/1999/xlink" xmlns:lucid="lucid" width="1340" height="1278.5"><g transform="translate(-320 -20)" lucid:page-tab-id="0_0"><path d="M0 0h1870.87v1322.83H0z" fill="#fff"/><path d="M700 624.5c0-3.3 2.7-6 6-6h188c3.3 0 6 2.7 6 6v88c0 3.3-2.7 6-6 6H706c-3.3 0-6-2.7-6-6z" stroke="#5e5e5e" stroke-width="3" fill="#fff"/><use xlink:href="#a" transform="matrix(1,0,0,1,705,623.5) translate(71.60493827160494 48.71527777777778)"/><path d="M500 368.5c0 27.6-35.82 50-80 50s-80-22.4-80-50 35.82-50 80-50 80 22.4 80 50z" stroke="#5e5e5e" stroke-width="3" fill="#fff"/><use xlink:href="#b" transform="matrix(1,0,0,1,345,323.5) translate(25.679012345679013 48.71527777777778)"/><path d="M500 468.5c0 27.6-35.82 50-80 50s-80-22.4-80-50 35.82-50 80-50 80 22.4 80 50z" stroke="#5e5e5e" stroke-width="3" fill="#fff"/><use xlink:href="#c" transform="matrix(1,0,0,1,345,423.5) translate(54.72222222222222 48.71527777777778)"/><path d="M500 568.5c0 27.6-35.82 50-80 50s-80-22.4-80-50 35.82-50 80-50 80 22.4 80 50z" stroke="#5e5e5e" stroke-width="3" fill="#fff"/><use xlink:href="#d" transform="matrix(1,0,0,1,345,523.5) translate(27.53086419753086 48.71527777777778)"/><path d="M500 668.5c0 27.6-35.82 50-80 50s-80-22.4-80-50 35.82-50 80-50 80 22.4 80 50z" stroke="#5e5e5e" stroke-width="3" fill="#fff"/><use xlink:href="#e" transform="matrix(1,0,0,1,345,623.5) translate(24.506172839506164 48.71527777777778)"/><path d="M500 768.5c0 27.6-35.82 50-80 50s-80-22.4-80-50 35.82-50 80-50 80 22.4 80 50z" stroke="#5e5e5e" stroke-width="3" fill="#fff"/><use xlink:href="#f" transform="matrix(1,0,0,1,345,723.5000000000001) translate(-1.3888888888888857 49.44444444444444)"/><path d="M500 868.5c0 27.6-35.82 50-80 50s-80-22.4-80-50 35.82-50 80-50 80 22.4 80 50z" stroke="#5e5e5e" stroke-width="3" fill="#fff"/><use xlink:href="#g" transform="matrix(1,0,0,1,345,823.5) translate(36.141975308641975 48.71527777777778)"/><path d="M502.5 368.5H594c3.3 0 6 2.7 6 6v288c0 3.3 2.7 6 6 6h91.5" stroke="#5e5e5e" stroke-width="2" fill="none"/><path d="M502.53 369.5h-1.06l.03-.98v-.32l-.03-.7h1.06zM698.5 669.5h-1.03v-2h1.03z" fill="#5e5e5e"/><path d="M502.5 468.5H594c3.3 0 6 2.7 6 6v188c0 3.3 2.7 6 6 6h91.5" stroke="#5e5e5e" stroke-width="2" fill="none"/><path d="M502.53 469.5h-1.06l.03-.98v-.32l-.03-.7h1.06zM698.5 669.5h-1.03v-2h1.03z" fill="#5e5e5e"/><path d="M502.5 568.5H594c3.3 0 6 2.7 6 6v88c0 3.3 2.7 6 6 6h91.5" stroke="#5e5e5e" stroke-width="2" fill="none"/><path d="M502.53 569.5h-1.06l.03-.98v-.32l-.03-.7h1.06zM698.5 669.5h-1.03v-2h1.03z" fill="#5e5e5e"/><path d="M502.5 868.5H594c3.3 0 6-2.7 6-6v-188c0-3.3 2.7-6 6-6h91.5" stroke="#5e5e5e" stroke-width="2" fill="none"/><path d="M502.53 869.5h-1.06l.03-.98v-.32l-.03-.7h1.06zM698.5 669.5h-1.03v-2h1.03z" fill="#5e5e5e"/><path d="M502.5 668.5h195" stroke="#5e5e5e" stroke-width="2" fill="none"/><path d="M502.53 669.5h-1.06l.03-.98v-.32l-.03-.7h1.06zM698.5 669.5h-1.03v-2h1.03z" fill="#5e5e5e"/><path d="M502.5 768.5H594c3.3 0 6-2.7 6-6v-88c0-3.3 2.7-6 6-6h91.5" stroke="#5e5e5e" stroke-width="2" fill="none"/><path d="M502.53 769.5h-1.06l.03-.98v-.32l-.03-.7h1.06zM698.5 669.5h-1.03v-2h1.03z" fill="#5e5e5e"/><path d="M1045.76 592.74c2.34-2.34 6.14-2.34 8.48 0l71.52 71.52c2.34 2.34 2.34 6.14 0 8.48l-71.52 71.52c-2.34 2.34-6.14 2.34-8.48 0l-71.52-71.52c-2.34-2.34-2.34-6.14 0-8.48z" stroke="#5e5e5e" stroke-width="3" fill="#fff"/><use xlink:href="#h" transform="matrix(1,0,0,1,975,593.5) translate(47.87537037037037 50.59027777777778)"/><use xlink:href="#i" transform="matrix(1,0,0,1,975,593.5) translate(65.74574074074074 77.25694444444446)"/><use xlink:href="#j" transform="matrix(1,0,0,1,975,593.5) translate(47.87537037037037 103.92361111111111)"/><path d="M1200 624.5c0-3.3 2.7-6 6-6h188c3.3 0 6 2.7 6 6v88c0 3.3-2.7 6-6 6h-188c-3.3 0-6-2.7-6-6z" stroke="#5e5e5e" stroke-width="3" fill="#fff"/><use xlink:href="#k" transform="matrix(1,0,0,1,1212,630.5) translate(50.99382716049382 41.52777777777778)"/><path d="M1130 668.5h50" stroke="#5e5e5e" stroke-width="2" fill="none"/><path d="M1130 669.5h-1.15l.18-1.33-.15-.67h1.13z" fill="#5e5e5e"/><path d="M1195.26 668.5l-14.26 4.64v-9.28z" stroke="#5e5e5e" stroke-width="2" fill="#5e5e5e"/><path d="M1630 568.5c0 27.6-35.82 50-80 50s-80-22.4-80-50 35.82-50 80-50 80 22.4 80 50z" stroke="#5e5e5e" stroke-width="3" fill="#fff"/><use xlink:href="#l" transform="matrix(1,0,0,1,1475,523.5) translate(23.827160493827158 48.71527777777778)"/><path d="M1630 358.5c0 27.6-35.82 50-80 50s-80-22.4-80-50 35.82-50 80-50 80 22.4 80 50z" stroke="#5e5e5e" stroke-width="3" fill="#fff"/><use xlink:href="#m" transform="matrix(1,0,0,1,1475,313.5) translate(23.209876543209873 48.71527777777778)"/><path d="M1200 1024.5c0-3.3 2.7-6 6-6h188c3.3 0 6 2.7 6 6v88c0 3.3-2.7 6-6 6h-188c-3.3 0-6-2.7-6-6z" stroke="#5e5e5e" stroke-width="3" fill="#fff"/><use xlink:href="#n" transform="matrix(1,0,0,1,1212,1030.5) translate(49.75925925925927 41.52777777777778)"/><path d="M1295.76 792.74c2.34-2.34 6.14-2.34 8.48 0l71.52 71.52c2.34 2.34 2.34 6.14 0 8.48l-71.52 71.52c-2.34 2.34-6.14 2.34-8.48 0l-71.52-71.52c-2.34-2.34-2.34-6.14 0-8.48z" stroke="#5e5e5e" stroke-width="3" fill="#fff"/><use xlink:href="#o" transform="matrix(1,0,0,1,1225,793.5) translate(22.535864197530863 78.71527777777777)"/><use xlink:href="#p" transform="matrix(1,0,0,1,1225,793.5) translate(65.74574074074074 78.71527777777777)"/><use xlink:href="#q" transform="matrix(1,0,0,1,1225,793.5) translate(90.4370987654321 78.71527777777777)"/><path d="M1300 788.5V721" stroke="#5e5e5e" stroke-width="2" fill="none"/><path d="M1301 789.65l-1.33-.18-.67.15v-1.13h2zM1301 721.03h-2V720h2z" fill="#5e5e5e"/><path d="M970 668.5h-50" stroke="#5e5e5e" stroke-width="2" fill="none"/><path d="M970.97 668.83l.15.67H970v-2h1.15z" fill="#5e5e5e"/><path d="M904.74 668.5l14.26-4.64v9.28z" stroke="#5e5e5e" stroke-width="2" fill="#5e5e5e"/><path d="M1300 1016v-67.5" stroke="#5e5e5e" stroke-width="2" fill="none"/><path d="M1301 1017h-2v-1.03h2zM1300.33 947.53l.67-.15v1.13h-2v-1.15z" fill="#5e5e5e"/><path d="M1140 1227.08c0 27.62-35.82 50-80 50s-80-22.38-80-50c0-27.6 35.82-50 80-50s80 22.4 80 50z" stroke="#5e5e5e" stroke-width="3" fill="#fff"/><use xlink:href="#r" transform="matrix(1,0,0,1,985,1182.0826771653544) translate(57.77777777777778 48.71527777777778)"/><path d="M1300 1228.5c0 27.6-35.82 50-80 50s-80-22.4-80-50 35.82-50 80-50 80 22.4 80 50z" stroke="#5e5e5e" stroke-width="3" fill="#fff"/><use xlink:href="#s" transform="matrix(1,0,0,1,1145,1183.5) translate(50.98765432098766 48.71527777777778)"/><path d="M1460 1227.08c0 27.62-35.82 50-80 50s-80-22.38-80-50c0-27.6 35.82-50 80-50s80 22.4 80 50z" stroke="#5e5e5e" stroke-width="3" fill="#fff"/><use xlink:href="#t" transform="matrix(1,0,0,1,1305,1182.0826771653544) translate(21.388888888888886 48.71527777777778)"/><path d="M1620 1227.08c0 27.62-35.82 50-80 50s-80-22.38-80-50c0-27.6 35.82-50 80-50s80 22.4 80 50z" stroke="#5e5e5e" stroke-width="3" fill="#fff"/><use xlink:href="#u" transform="matrix(1,0,0,1,1465,1182.0826771653544) translate(47.22222222222222 48.71527777777778)"/><path d="M1060 1174.58v-20.8c0-3.3 2.7-6 6-6h228c3.3 0 6-2.67 6-6V1121" stroke="#5e5e5e" stroke-width="2" fill="none"/><path d="M1061 1175.6l-.98-.02H1059v-1.02h2zM1301 1121.03h-2V1120h2z" fill="#5e5e5e"/><path d="M1220 1176v-21.5c0-3.3 2.7-6 6-6h68c3.3 0 6-2.7 6-6V1121" stroke="#5e5e5e" stroke-width="2" fill="none"/><path d="M1221 1177.03l-.98-.03H1219v-1.03h2zM1301 1121.03h-2V1120h2z" fill="#5e5e5e"/><path d="M1380 1174.58v-20.8c0-3.3-2.7-6-6-6h-68c-3.3 0-6-2.67-6-6V1121" stroke="#5e5e5e" stroke-width="2" fill="none"/><path d="M1381 1175.6l-.98-.02H1379v-1.02h2zM1301 1121.03h-2V1120h2z" fill="#5e5e5e"/><path d="M1540 1174.58v-20.08c0-3.3-2.7-6-6-6h-233.95" stroke="#5e5e5e" stroke-width="2" fill="none"/><path d="M1541 1175.6l-.98-.02H1539v-1.02h2z" fill="#5e5e5e"/><path d="M1299.05 1148.5" stroke="#5e5e5e" stroke-width="2" fill="none"/><path d="M1630 668.5c0 27.6-35.82 50-80 50s-80-22.4-80-50 35.82-50 80-50 80 22.4 80 50z" stroke="#5e5e5e" stroke-width="3" fill="#fff"/><use xlink:href="#v" transform="matrix(1,0,0,1,1475,623.5000000000001) translate(44.81481481481482 48.71527777777778)"/><path d="M1200 106c0-3.3 2.7-6 6-6h188c3.3 0 6 2.7 6 6v88c0 3.3-2.7 6-6 6h-188c-3.3 0-6-2.7-6-6z" stroke="#5e5e5e" stroke-width="3" fill="#fff"/><use xlink:href="#w" transform="matrix(1,0,0,1,1205,105) translate(46.94444444444444 48.71527777777778)"/><path d="M1295.76 333.5c2.34-2.35 6.14-2.35 8.48 0l71.52 71.5c2.34 2.35 2.34 6.15 0 8.5l-71.52 71.5c-2.34 2.35-6.14 2.35-8.48 0l-71.52-71.5c-2.34-2.35-2.34-6.15 0-8.5z" stroke="#5e5e5e" stroke-width="3" fill="#fff"/><use xlink:href="#x" transform="matrix(1,0,0,1,1225,334.25) translate(13.92475308641975 78.71527777777777)"/><use xlink:href="#p" transform="matrix(1,0,0,1,1225,334.25) translate(74.35685185185184 78.71527777777777)"/><use xlink:href="#q" transform="matrix(1,0,0,1,1225,334.25) translate(99.0482098765432 78.71527777777777)"/><path d="M1300 329.26V202.5" stroke="#5e5e5e" stroke-width="2" fill="none"/><path d="M1301 330.4l-1.33-.18-.67.15v-1.13h2zM1301 202.53h-2v-1.03h2z" fill="#5e5e5e"/><path d="M1300 489.24V598.5" stroke="#5e5e5e" stroke-width="2" fill="none"/><path d="M1300.33 488.28l.67-.15v1.13h-2v-1.16z" fill="#5e5e5e"/><path d="M1300 613.76l-4.64-14.26h9.28z" stroke="#5e5e5e" stroke-width="2" fill="#5e5e5e"/><path d="M1640 90c0 27.6-35.82 50-80 50s-80-22.4-80-50 35.82-50 80-50 80 22.4 80 50z" stroke="#5e5e5e" stroke-width="3" fill="#fff"/><use xlink:href="#y" transform="matrix(1,0,0,1,1485,45) translate(54.04320987654321 48.71527777777778)"/><path d="M1402.5 150h31.5c3.3 0 6-2.7 6-6V96c0-3.3 2.7-6 6-6h31.5" stroke="#5e5e5e" stroke-width="2" fill="none"/><path d="M1402.53 151h-1.03v-2h1.03zM1478.5 89.98v.32l.03.7h-1.06v-2h1.06z" fill="#5e5e5e"/><path d="M795.76 74.24c2.34-2.34 6.14-2.34 8.48 0l71.52 71.52c2.34 2.34 2.34 6.14 0 8.48l-71.52 71.52c-2.34 2.34-6.14 2.34-8.48 0l-71.52-71.52c-2.34-2.34-2.34-6.14 0-8.48z" stroke="#5e5e5e" stroke-width="3" fill="#fff"/><use xlink:href="#o" transform="matrix(1,0,0,1,725,75) translate(13.92475308641975 78.71527777777777)"/><use xlink:href="#p" transform="matrix(1,0,0,1,725,75) translate(57.13462962962963 78.71527777777777)"/><use xlink:href="#z" transform="matrix(1,0,0,1,725,75) translate(81.82598765432098 78.71527777777777)"/><path d="M800 616V230" stroke="#5e5e5e" stroke-width="2" fill="none"/><path d="M801 617h-2v-1.03h2zM800.33 229.03l.67-.15V230h-2v-1.15z" fill="#5e5e5e"/><path d="M880 150h300" stroke="#5e5e5e" stroke-width="2" fill="none"/><path d="M880 151h-1.15l.18-1.33-.15-.67H880z" fill="#5e5e5e"/><path d="M1195.26 150l-14.26 4.64v-9.28z" stroke="#5e5e5e" stroke-width="2" fill="#5e5e5e"/><path d="M1640 210c0 27.6-35.82 50-80 50s-80-22.4-80-50 35.82-50 80-50 80 22.4 80 50z" stroke="#5e5e5e" stroke-width="3" fill="#fff"/><use xlink:href="#A" transform="matrix(1,0,0,1,1485,165) translate(38.641975308641975 48.71527777777778)"/><path d="M1477.5 210H1446c-3.3 0-6-2.7-6-6v-48c0-3.3-2.7-6-6-6h-31.5" stroke="#5e5e5e" stroke-width="2" fill="none"/><path d="M1478.5 209.98v.32l.03.7h-1.06v-2h1.06zM1402.53 151h-1.03v-2h1.03z" fill="#5e5e5e"/><path d="M1630 468.5c0 27.6-35.82 50-80 50s-80-22.4-80-50 35.82-50 80-50 80 22.4 80 50z" stroke="#5e5e5e" stroke-width="3" fill="#fff"/><use xlink:href="#B" transform="matrix(1,0,0,1,1475,423.49999999999994) translate(39.81481481481482 48.71527777777778)"/><path d="M1467.5 668.5h-65" stroke="#5e5e5e" stroke-width="2" fill="none"/><path d="M1468.5 668.48v.32l.03.7h-1.06v-2h1.06zM1402.53 669.5h-1.03v-2h1.03z" fill="#5e5e5e"/><path d="M1467.5 358.5H1441c-3.3 0-6 2.7-6 6v298c0 3.3-2.7 6-6 6h-26.5" stroke="#5e5e5e" stroke-width="2" fill="none"/><path d="M1468.5 358.48v.32l.03.7h-1.06v-2h1.06zM1402.53 669.5h-1.03v-2h1.03z" fill="#5e5e5e"/><path d="M1467.5 568.5H1441c-3.3 0-6 2.7-6 6v88c0 3.3-2.7 6-6 6h-26.5" stroke="#5e5e5e" stroke-width="2" fill="none"/><path d="M1468.5 568.48v.32l.03.7h-1.06v-2h1.06zM1402.53 669.5h-1.03v-2h1.03z" fill="#5e5e5e"/><path d="M1467.5 468.5H1441c-3.3 0-6 2.7-6 6v188c0 3.3-2.7 6-6 6h-26.5" stroke="#5e5e5e" stroke-width="2" fill="none"/><path d="M1468.5 468.48v.32l.03.7h-1.06v-2h1.06zM1402.53 669.5h-1.03v-2h1.03z" fill="#5e5e5e"/><path d="M1630 768.5c0 27.6-35.82 50-80 50s-80-22.4-80-50 35.82-50 80-50 80 22.4 80 50z" stroke="#5e5e5e" stroke-width="3" fill="#fff"/><use xlink:href="#C" transform="matrix(1,0,0,1,1475,723.5000000000001) translate(3.4876543209876445 48.71527777777778)"/><path d="M1467.5 768.5H1441c-3.3 0-6-2.7-6-6v-88c0-3.3-2.7-6-6-6h-26.5" stroke="#5e5e5e" stroke-width="2" fill="none"/><path d="M1468.5 768.48v.32l.03.7h-1.06v-2h1.06zM1402.53 669.5h-1.03v-2h1.03z" fill="#5e5e5e"/><path d="M1630 868.5c0 27.6-35.82 50-80 50s-80-22.4-80-50 35.82-50 80-50 80 22.4 80 50z" stroke="#5e5e5e" stroke-width="3" fill="#fff"/><use xlink:href="#D" transform="matrix(1,0,0,1,1475,823.5) translate(-0.8333333333333428 49.44444444444444)"/><path d="M500 968.5c0 27.6-35.82 50-80 50s-80-22.4-80-50 35.82-50 80-50 80 22.4 80 50z" stroke="#5e5e5e" stroke-width="3" fill="#fff"/><use xlink:href="#E" transform="matrix(1,0,0,1,345,923.5) translate(47.25308641975309 48.71527777777778)"/><path d="M502.5 968.5H594c3.3 0 6-2.7 6-6v-288c0-3.3 2.7-6 6-6h91.5" stroke="#5e5e5e" stroke-width="2" fill="none"/><path d="M502.53 969.5h-1.06l.03-.98v-.32l-.03-.7h1.06zM698.5 669.5h-1.03v-2h1.03z" fill="#5e5e5e"/><path d="M1467.5 868.5H1441c-3.3 0-6-2.7-6-6v-188c0-3.3-2.7-6-6-6h-26.5" stroke="#5e5e5e" stroke-width="2" fill="none"/><path d="M1468.5 868.48v.32l.03.7h-1.06v-2h1.06zM1402.53 669.5h-1.03v-2h1.03z" fill="#5e5e5e"/><path d="M1630 968.5c0 27.6-35.82 50-80 50s-80-22.4-80-50 35.82-50 80-50 80 22.4 80 50z" stroke="#5e5e5e" stroke-width="3" fill="#fff"/><g><use xlink:href="#F" transform="matrix(1,0,0,1,1475,923.5) translate(42.376543209876544 48.71527777777778)"/></g><path d="M1467.5 968.5H1441c-3.3 0-6-2.7-6-6v-288c0-3.3-2.7-6-6-6h-26.5" stroke="#5e5e5e" stroke-width="2" fill="none"/><path d="M1468.5 968.48v.32l.03.7h-1.06v-2h1.06zM1402.53 669.5h-1.03v-2h1.03z" fill="#5e5e5e"/><defs><path fill="#333" d="M232-93c-1 65-40 97-104 97C67 4 28-28 28-90v-158h33c8 89-33 224 67 224 102 0 64-133 71-224h33v155" id="G"/><path fill="#333" d="M135-143c-3-34-86-38-87 0 15 53 115 12 119 90S17 21 10-45l28-5c4 36 97 45 98 0-10-56-113-15-118-90-4-57 82-63 122-42 12 7 21 19 24 35" id="H"/><path fill="#333" d="M100-194c63 0 86 42 84 106H49c0 40 14 67 53 68 26 1 43-12 49-29l28 8c-11 28-37 45-77 45C44 4 14-33 15-96c1-61 26-98 85-98zm52 81c6-60-76-77-97-28-3 7-6 17-6 28h103" id="I"/><path fill="#333" d="M114-163C36-179 61-72 57 0H25l-1-190h30c1 12-1 29 2 39 6-27 23-49 58-41v29" id="J"/><g id="a"><use transform="matrix(0.06172839506172839,0,0,0.06172839506172839,0,0)" xlink:href="#G"/><use transform="matrix(0.06172839506172839,0,0,0.06172839506172839,15.987654320987653,0)" xlink:href="#H"/><use transform="matrix(0.06172839506172839,0,0,0.06172839506172839,27.098765432098766,0)" xlink:href="#I"/><use transform="matrix(0.06172839506172839,0,0,0.06172839506172839,39.44444444444444,0)" xlink:href="#J"/></g><path fill="#333" d="M84 4C-5 8 30-112 23-190h32v120c0 31 7 50 39 49 72-2 45-101 50-169h31l1 190h-30c-1-10 1-25-2-33-11 22-28 36-60 37" id="K"/><path fill="#333" d="M117-194c89-4 53 116 60 194h-32v-121c0-31-8-49-39-48C34-167 62-67 57 0H25l-1-190h30c1 10-1 24 2 32 11-22 29-35 61-36" id="L"/><path fill="#333" d="M141-36C126-15 110 5 73 4 37 3 15-17 15-53c-1-64 63-63 125-63 3-35-9-54-41-54-24 1-41 7-42 31l-33-3c5-37 33-52 76-52 45 0 72 20 72 64v82c-1 20 7 32 28 27v20c-31 9-61-2-59-35zM48-53c0 20 12 33 32 33 41-3 63-29 60-74-43 2-92-5-92 41" id="M"/><path fill="#333" d="M210-169c-67 3-38 105-44 169h-31v-121c0-29-5-50-35-48C34-165 62-65 56 0H25l-1-190h30c1 10-1 24 2 32 10-44 99-50 107 0 11-21 27-35 58-36 85-2 47 119 55 194h-31v-121c0-29-5-49-35-48" id="N"/><g id="b"><use transform="matrix(0.06172839506172839,0,0,0.06172839506172839,0,0)" xlink:href="#K"/><use transform="matrix(0.06172839506172839,0,0,0.06172839506172839,12.345679012345679,0)" xlink:href="#H"/><use transform="matrix(0.06172839506172839,0,0,0.06172839506172839,23.45679012345679,0)" xlink:href="#I"/><use transform="matrix(0.06172839506172839,0,0,0.06172839506172839,35.80246913580247,0)" xlink:href="#J"/><use transform="matrix(0.06172839506172839,0,0,0.06172839506172839,43.148148148148145,0)" xlink:href="#L"/><use transform="matrix(0.06172839506172839,0,0,0.06172839506172839,55.49382716049382,0)" xlink:href="#M"/><use transform="matrix(0.06172839506172839,0,0,0.06172839506172839,67.8395061728395,0)" xlink:href="#N"/><use transform="matrix(0.06172839506172839,0,0,0.06172839506172839,86.29629629629629,0)" xlink:href="#I"/></g><path fill="#333" d="M24-231v-30h32v30H24zM24 0v-190h32V0H24" id="O"/><path fill="#333" d="M24 0v-261h32V0H24" id="P"/><g id="c"><use transform="matrix(0.06172839506172839,0,0,0.06172839506172839,0,0)" xlink:href="#N"/><use transform="matrix(0.06172839506172839,0,0,0.06172839506172839,18.456790123456788,0)" xlink:href="#M"/><use transform="matrix(0.06172839506172839,0,0,0.06172839506172839,30.80246913580247,0)" xlink:href="#O"/><use transform="matrix(0.06172839506172839,0,0,0.06172839506172839,35.67901234567901,0)" xlink:href="#P"/></g><path fill="#333" d="M115-194c55 1 70 41 70 98S169 2 115 4C84 4 66-9 55-30l1 105H24l-1-265h31l2 30c10-21 28-34 59-34zm-8 174c40 0 45-34 45-75s-6-73-45-74c-42 0-51 32-51 76 0 43 10 73 51 73" id="Q"/><path fill="#333" d="M206 0h-36l-40-164L89 0H53L-1-190h32L70-26l43-164h34l41 164 42-164h31" id="R"/><path fill="#333" d="M100-194c62-1 85 37 85 99 1 63-27 99-86 99S16-35 15-95c0-66 28-99 85-99zM99-20c44 1 53-31 53-75 0-43-8-75-51-75s-53 32-53 75 10 74 51 75" id="S"/><path fill="#333" d="M85-194c31 0 48 13 60 33l-1-100h32l1 261h-30c-2-10 0-23-3-31C134-8 116 4 85 4 32 4 16-35 15-94c0-66 23-100 70-100zm9 24c-40 0-46 34-46 75 0 40 6 74 45 74 42 0 51-32 51-76 0-42-9-74-50-73" id="T"/><g id="d"><use transform="matrix(0.06172839506172839,0,0,0.06172839506172839,0,0)" xlink:href="#Q"/><use transform="matrix(0.06172839506172839,0,0,0.06172839506172839,12.345679012345679,0)" xlink:href="#M"/><use transform="matrix(0.06172839506172839,0,0,0.06172839506172839,24.691358024691358,0)" xlink:href="#H"/><use transform="matrix(0.06172839506172839,0,0,0.06172839506172839,35.80246913580247,0)" xlink:href="#H"/><use transform="matrix(0.06172839506172839,0,0,0.06172839506172839,46.91358024691358,0)" xlink:href="#R"/><use transform="matrix(0.06172839506172839,0,0,0.06172839506172839,62.901234567901234,0)" xlink:href="#S"/><use transform="matrix(0.06172839506172839,0,0,0.06172839506172839,75.24691358024691,0)" xlink:href="#J"/><use transform="matrix(0.06172839506172839,0,0,0.06172839506172839,82.5925925925926,0)" xlink:href="#T"/></g><path fill="#333" d="M101-234c-31-9-42 10-38 44h38v23H63V0H32v-167H5v-23h27c-7-52 17-82 69-68v24" id="U"/><path fill="#333" d="M-5 72V49h209v23H-5" id="V"/><path fill="#333" d="M96-169c-40 0-48 33-48 73s9 75 48 75c24 0 41-14 43-38l32 2c-6 37-31 61-74 61-59 0-76-41-82-99-10-93 101-131 147-64 4 7 5 14 7 22l-32 3c-4-21-16-35-41-35" id="W"/><g id="e"><use transform="matrix(0.06172839506172839,0,0,0.06172839506172839,0,0)" xlink:href="#Q"/><use transform="matrix(0.06172839506172839,0,0,0.06172839506172839,12.345679012345679,0)" xlink:href="#J"/><use transform="matrix(0.06172839506172839,0,0,0.06172839506172839,19.691358024691358,0)" xlink:href="#S"/><use transform="matrix(0.06172839506172839,0,0,0.06172839506172839,32.03703703703704,0)" xlink:href="#U"/><use transform="matrix(0.06172839506172839,0,0,0.06172839506172839,38.20987654320988,0)" xlink:href="#O"/><use transform="matrix(0.06172839506172839,0,0,0.06172839506172839,43.086419753086425,0)" xlink:href="#P"/><use transform="matrix(0.06172839506172839,0,0,0.06172839506172839,47.96296296296297,0)" xlink:href="#I"/><use transform="matrix(0.06172839506172839,0,0,0.06172839506172839,60.308641975308646,0)" xlink:href="#V"/><use transform="matrix(0.06172839506172839,0,0,0.06172839506172839,72.65432098765433,0)" xlink:href="#Q"/><use transform="matrix(0.06172839506172839,0,0,0.06172839506172839,85.00000000000001,0)" xlink:href="#O"/><use transform="matrix(0.06172839506172839,0,0,0.06172839506172839,89.87654320987656,0)" xlink:href="#W"/></g><path fill="#333" d="M115-194c53 0 69 39 70 98 0 66-23 100-70 100C84 3 66-7 56-30L54 0H23l1-261h32v101c10-23 28-34 59-34zm-8 174c40 0 45-34 45-75 0-40-5-75-45-74-42 0-51 32-51 76 0 43 10 73 51 73" id="X"/><g id="f"><use transform="matrix(0.06172839506172839,0,0,0.06172839506172839,0,0)" xlink:href="#N"/><use transform="matrix(0.06172839506172839,0,0,0.06172839506172839,18.456790123456788,0)" xlink:href="#S"/><use transform="matrix(0.06172839506172839,0,0,0.06172839506172839,30.80246913580247,0)" xlink:href="#X"/><use transform="matrix(0.06172839506172839,0,0,0.06172839506172839,43.148148148148145,0)" xlink:href="#O"/><use transform="matrix(0.06172839506172839,0,0,0.06172839506172839,48.02469135802469,0)" xlink:href="#P"/><use transform="matrix(0.06172839506172839,0,0,0.06172839506172839,52.901234567901234,0)" xlink:href="#I"/><use transform="matrix(0.06172839506172839,0,0,0.06172839506172839,65.24691358024691,0)" xlink:href="#V"/><use transform="matrix(0.06172839506172839,0,0,0.06172839506172839,77.5925925925926,0)" xlink:href="#L"/><use transform="matrix(0.06172839506172839,0,0,0.06172839506172839,89.93827160493828,0)" xlink:href="#K"/><use transform="matrix(0.06172839506172839,0,0,0.06172839506172839,102.28395061728396,0)" xlink:href="#N"/><use transform="matrix(0.06172839506172839,0,0,0.06172839506172839,120.74074074074075,0)" xlink:href="#X"/><use transform="matrix(0.06172839506172839,0,0,0.06172839506172839,133.08641975308643,0)" xlink:href="#I"/><use transform="matrix(0.06172839506172839,0,0,0.06172839506172839,145.4320987654321,0)" xlink:href="#J"/></g><g id="g"><use transform="matrix(0.06172839506172839,0,0,0.06172839506172839,0,0)" xlink:href="#X"/><use transform="matrix(0.06172839506172839,0,0,0.06172839506172839,12.345679012345679,0)" xlink:href="#M"/><use transform="matrix(0.06172839506172839,0,0,0.06172839506172839,24.691358024691358,0)" xlink:href="#P"/><use transform="matrix(0.06172839506172839,0,0,0.06172839506172839,29.5679012345679,0)" xlink:href="#M"/><use transform="matrix(0.06172839506172839,0,0,0.06172839506172839,41.913580246913575,0)" xlink:href="#L"/><use transform="matrix(0.06172839506172839,0,0,0.06172839506172839,54.25925925925925,0)" xlink:href="#W"/><use transform="matrix(0.06172839506172839,0,0,0.06172839506172839,65.37037037037037,0)" xlink:href="#I"/></g><path fill="#333" d="M179-190L93 31C79 59 56 82 12 73V49c39 6 53-20 64-50L1-190h34L92-34l54-156h33" id="Y"/><g id="h"><use transform="matrix(0.06172839506172839,0,0,0.06172839506172839,0,0)" xlink:href="#N"/><use transform="matrix(0.06172839506172839,0,0,0.06172839506172839,18.456790123456788,0)" xlink:href="#M"/><use transform="matrix(0.06172839506172839,0,0,0.06172839506172839,30.80246913580247,0)" xlink:href="#L"/><use transform="matrix(0.06172839506172839,0,0,0.06172839506172839,43.148148148148145,0)" xlink:href="#Y"/></g><path fill="#333" d="M59-47c-2 24 18 29 38 22v24C64 9 27 4 27-40v-127H5v-23h24l9-43h21v43h35v23H59v120" id="Z"/><g id="i"><use transform="matrix(0.06172839506172839,0,0,0.06172839506172839,0,0)" xlink:href="#Z"/><use transform="matrix(0.06172839506172839,0,0,0.06172839506172839,6.172839506172839,0)" xlink:href="#S"/></g><g id="j"><use transform="matrix(0.06172839506172839,0,0,0.06172839506172839,0,0)" xlink:href="#N"/><use transform="matrix(0.06172839506172839,0,0,0.06172839506172839,18.456790123456788,0)" xlink:href="#M"/><use transform="matrix(0.06172839506172839,0,0,0.06172839506172839,30.80246913580247,0)" xlink:href="#L"/><use transform="matrix(0.06172839506172839,0,0,0.06172839506172839,43.148148148148145,0)" xlink:href="#Y"/></g><path fill="#333" d="M205 0l-28-72H64L36 0H1l101-248h38L239 0h-34zm-38-99l-47-123c-12 45-31 82-46 123h93" id="aa"/><g id="k"><use transform="matrix(0.06172839506172839,0,0,0.06172839506172839,0,0)" xlink:href="#aa"/><use transform="matrix(0.06172839506172839,0,0,0.06172839506172839,14.814814814814813,0)" xlink:href="#K"/><use transform="matrix(0.06172839506172839,0,0,0.06172839506172839,27.160493827160494,0)" xlink:href="#W"/><use transform="matrix(0.06172839506172839,0,0,0.06172839506172839,38.27160493827161,0)" xlink:href="#Z"/><use transform="matrix(0.06172839506172839,0,0,0.06172839506172839,44.44444444444445,0)" xlink:href="#O"/><use transform="matrix(0.06172839506172839,0,0,0.06172839506172839,49.320987654320994,0)" xlink:href="#S"/><use transform="matrix(0.06172839506172839,0,0,0.06172839506172839,61.66666666666667,0)" xlink:href="#L"/></g><g id="l"><use transform="matrix(0.06172839506172839,0,0,0.06172839506172839,0,0)" xlink:href="#W"/><use transform="matrix(0.06172839506172839,0,0,0.06172839506172839,11.11111111111111,0)" xlink:href="#K"/><use transform="matrix(0.06172839506172839,0,0,0.06172839506172839,23.45679012345679,0)" xlink:href="#H"/><use transform="matrix(0.06172839506172839,0,0,0.06172839506172839,34.5679012345679,0)" xlink:href="#Z"/><use transform="matrix(0.06172839506172839,0,0,0.06172839506172839,40.74074074074074,0)" xlink:href="#S"/><use transform="matrix(0.06172839506172839,0,0,0.06172839506172839,53.08641975308642,0)" xlink:href="#N"/><use transform="matrix(0.06172839506172839,0,0,0.06172839506172839,71.5432098765432,0)" xlink:href="#I"/><use transform="matrix(0.06172839506172839,0,0,0.06172839506172839,83.88888888888889,0)" xlink:href="#J"/><use transform="matrix(0.06172839506172839,0,0,0.06172839506172839,91.23456790123457,0)" xlink:href="#H"/></g><g id="m"><use transform="matrix(0.06172839506172839,0,0,0.06172839506172839,0,0)" xlink:href="#Q"/><use transform="matrix(0.06172839506172839,0,0,0.06172839506172839,12.345679012345679,0)" xlink:href="#J"/><use transform="matrix(0.06172839506172839,0,0,0.06172839506172839,19.691358024691358,0)" xlink:href="#S"/><use transform="matrix(0.06172839506172839,0,0,0.06172839506172839,32.03703703703704,0)" xlink:href="#T"/><use transform="matrix(0.06172839506172839,0,0,0.06172839506172839,44.382716049382715,0)" xlink:href="#K"/><use transform="matrix(0.06172839506172839,0,0,0.06172839506172839,56.72839506172839,0)" xlink:href="#W"/><use transform="matrix(0.06172839506172839,0,0,0.06172839506172839,67.8395061728395,0)" xlink:href="#Z"/><use transform="matrix(0.06172839506172839,0,0,0.06172839506172839,74.01234567901234,0)" xlink:href="#V"/><use transform="matrix(0.06172839506172839,0,0,0.06172839506172839,86.35802469135803,0)" xlink:href="#O"/><use transform="matrix(0.06172839506172839,0,0,0.06172839506172839,91.23456790123457,0)" xlink:href="#T"/></g><path fill="#333" d="M30-248c87 1 191-15 191 75 0 78-77 80-158 76V0H30v-248zm33 125c57 0 124 11 124-50 0-59-68-47-124-48v98" id="ab"/><g id="n"><use transform="matrix(0.06172839506172839,0,0,0.06172839506172839,0,0)" xlink:href="#ab"/><use transform="matrix(0.06172839506172839,0,0,0.06172839506172839,14.814814814814813,0)" xlink:href="#J"/><use transform="matrix(0.06172839506172839,0,0,0.06172839506172839,22.160493827160494,0)" xlink:href="#S"/><use transform="matrix(0.06172839506172839,0,0,0.06172839506172839,34.50617283950617,0)" xlink:href="#T"/><use transform="matrix(0.06172839506172839,0,0,0.06172839506172839,46.85185185185185,0)" xlink:href="#K"/><use transform="matrix(0.06172839506172839,0,0,0.06172839506172839,59.197530864197525,0)" xlink:href="#W"/><use transform="matrix(0.06172839506172839,0,0,0.06172839506172839,70.30864197530863,0)" xlink:href="#Z"/></g><g id="o"><use transform="matrix(0.06172839506172839,0,0,0.06172839506172839,0,0)" xlink:href="#S"/><use transform="matrix(0.06172839506172839,0,0,0.06172839506172839,12.345679012345679,0)" xlink:href="#L"/><use transform="matrix(0.06172839506172839,0,0,0.06172839506172839,24.691358024691358,0)" xlink:href="#I"/></g><g id="p"><use transform="matrix(0.06172839506172839,0,0,0.06172839506172839,0,0)" xlink:href="#Z"/><use transform="matrix(0.06172839506172839,0,0,0.06172839506172839,6.172839506172839,0)" xlink:href="#S"/></g><g id="q"><use transform="matrix(0.06172839506172839,0,0,0.06172839506172839,0,0)" xlink:href="#S"/><use transform="matrix(0.06172839506172839,0,0,0.06172839506172839,12.345679012345679,0)" xlink:href="#L"/><use transform="matrix(0.06172839506172839,0,0,0.06172839506172839,24.691358024691358,0)" xlink:href="#I"/></g><g id="r"><use transform="matrix(0.06172839506172839,0,0,0.06172839506172839,0,0)" xlink:href="#Z"/><use transform="matrix(0.06172839506172839,0,0,0.06172839506172839,6.172839506172839,0)" xlink:href="#O"/><use transform="matrix(0.06172839506172839,0,0,0.06172839506172839,11.049382716049383,0)" xlink:href="#Z"/><use transform="matrix(0.06172839506172839,0,0,0.06172839506172839,17.22222222222222,0)" xlink:href="#P"/><use transform="matrix(0.06172839506172839,0,0,0.06172839506172839,22.098765432098766,0)" xlink:href="#I"/></g><g id="s"><use transform="matrix(0.06172839506172839,0,0,0.06172839506172839,0,0)" xlink:href="#Q"/><use transform="matrix(0.06172839506172839,0,0,0.06172839506172839,12.345679012345679,0)" xlink:href="#J"/><use transform="matrix(0.06172839506172839,0,0,0.06172839506172839,19.691358024691358,0)" xlink:href="#O"/><use transform="matrix(0.06172839506172839,0,0,0.06172839506172839,24.5679012345679,0)" xlink:href="#W"/><use transform="matrix(0.06172839506172839,0,0,0.06172839506172839,35.67901234567901,0)" xlink:href="#I"/></g><g id="t"><use transform="matrix(0.06172839506172839,0,0,0.06172839506172839,0,0)" xlink:href="#T"/><use transform="matrix(0.06172839506172839,0,0,0.06172839506172839,12.345679012345679,0)" xlink:href="#I"/><use transform="matrix(0.06172839506172839,0,0,0.06172839506172839,24.691358024691358,0)" xlink:href="#H"/><use transform="matrix(0.06172839506172839,0,0,0.06172839506172839,35.80246913580247,0)" xlink:href="#W"/><use transform="matrix(0.06172839506172839,0,0,0.06172839506172839,46.91358024691358,0)" xlink:href="#J"/><use transform="matrix(0.06172839506172839,0,0,0.06172839506172839,54.25925925925926,0)" xlink:href="#O"/><use transform="matrix(0.06172839506172839,0,0,0.06172839506172839,59.135802469135804,0)" xlink:href="#Q"/><use transform="matrix(0.06172839506172839,0,0,0.06172839506172839,71.48148148148148,0)" xlink:href="#Z"/><use transform="matrix(0.06172839506172839,0,0,0.06172839506172839,77.65432098765432,0)" xlink:href="#O"/><use transform="matrix(0.06172839506172839,0,0,0.06172839506172839,82.53086419753086,0)" xlink:href="#S"/><use transform="matrix(0.06172839506172839,0,0,0.06172839506172839,94.87654320987654,0)" xlink:href="#L"/></g><path fill="#333" d="M106-169C34-169 62-67 57 0H25v-261h32l-1 103c12-21 28-36 61-36 89 0 53 116 60 194h-32v-121c2-32-8-49-39-48" id="ac"/><g id="u"><use transform="matrix(0.06172839506172839,0,0,0.06172839506172839,0,0)" xlink:href="#Q"/><use transform="matrix(0.06172839506172839,0,0,0.06172839506172839,12.345679012345679,0)" xlink:href="#ac"/><use transform="matrix(0.06172839506172839,0,0,0.06172839506172839,24.691358024691358,0)" xlink:href="#S"/><use transform="matrix(0.06172839506172839,0,0,0.06172839506172839,37.03703703703704,0)" xlink:href="#Z"/><use transform="matrix(0.06172839506172839,0,0,0.06172839506172839,43.20987654320988,0)" xlink:href="#S"/></g><g id="v"><use transform="matrix(0.06172839506172839,0,0,0.06172839506172839,0,0)" xlink:href="#S"/><use transform="matrix(0.06172839506172839,0,0,0.06172839506172839,12.345679012345679,0)" xlink:href="#R"/><use transform="matrix(0.06172839506172839,0,0,0.06172839506172839,28.333333333333332,0)" xlink:href="#L"/><use transform="matrix(0.06172839506172839,0,0,0.06172839506172839,40.67901234567901,0)" xlink:href="#I"/><use transform="matrix(0.06172839506172839,0,0,0.06172839506172839,53.02469135802469,0)" xlink:href="#J"/></g><path fill="#333" d="M212-179c-10-28-35-45-73-45-59 0-87 40-87 99 0 60 29 101 89 101 43 0 62-24 78-52l27 14C228-24 195 4 139 4 59 4 22-46 18-125c-6-104 99-153 187-111 19 9 31 26 39 46" id="ad"/><g id="w"><use transform="matrix(0.06172839506172839,0,0,0.06172839506172839,0,0)" xlink:href="#ad"/><use transform="matrix(0.06172839506172839,0,0,0.06172839506172839,15.987654320987653,0)" xlink:href="#K"/><use transform="matrix(0.06172839506172839,0,0,0.06172839506172839,28.333333333333332,0)" xlink:href="#H"/><use transform="matrix(0.06172839506172839,0,0,0.06172839506172839,39.44444444444444,0)" xlink:href="#Z"/><use transform="matrix(0.06172839506172839,0,0,0.06172839506172839,45.617283950617285,0)" xlink:href="#S"/><use transform="matrix(0.06172839506172839,0,0,0.06172839506172839,57.96296296296296,0)" xlink:href="#N"/><use transform="matrix(0.06172839506172839,0,0,0.06172839506172839,76.41975308641975,0)" xlink:href="#I"/><use transform="matrix(0.06172839506172839,0,0,0.06172839506172839,88.76543209876543,0)" xlink:href="#J"/></g><g id="x"><use transform="matrix(0.06172839506172839,0,0,0.06172839506172839,0,0)" xlink:href="#N"/><use transform="matrix(0.06172839506172839,0,0,0.06172839506172839,18.456790123456788,0)" xlink:href="#M"/><use transform="matrix(0.06172839506172839,0,0,0.06172839506172839,30.80246913580247,0)" xlink:href="#L"/><use transform="matrix(0.06172839506172839,0,0,0.06172839506172839,43.148148148148145,0)" xlink:href="#Y"/></g><g id="y"><use transform="matrix(0.06172839506172839,0,0,0.06172839506172839,0,0)" xlink:href="#H"/><use transform="matrix(0.06172839506172839,0,0,0.06172839506172839,11.11111111111111,0)" xlink:href="#K"/><use transform="matrix(0.06172839506172839,0,0,0.06172839506172839,23.45679012345679,0)" xlink:href="#N"/></g><g id="z"><use transform="matrix(0.06172839506172839,0,0,0.06172839506172839,0,0)" xlink:href="#N"/><use transform="matrix(0.06172839506172839,0,0,0.06172839506172839,18.456790123456788,0)" xlink:href="#M"/><use transform="matrix(0.06172839506172839,0,0,0.06172839506172839,30.80246913580247,0)" xlink:href="#L"/><use transform="matrix(0.06172839506172839,0,0,0.06172839506172839,43.148148148148145,0)" xlink:href="#Y"/></g><g id="A"><use transform="matrix(0.06172839506172839,0,0,0.06172839506172839,0,0)" xlink:href="#K"/><use transform="matrix(0.06172839506172839,0,0,0.06172839506172839,12.345679012345679,0)" xlink:href="#H"/><use transform="matrix(0.06172839506172839,0,0,0.06172839506172839,23.45679012345679,0)" xlink:href="#I"/><use transform="matrix(0.06172839506172839,0,0,0.06172839506172839,35.80246913580247,0)" xlink:href="#J"/><use transform="matrix(0.06172839506172839,0,0,0.06172839506172839,43.148148148148145,0)" xlink:href="#V"/><use transform="matrix(0.06172839506172839,0,0,0.06172839506172839,55.49382716049382,0)" xlink:href="#O"/><use transform="matrix(0.06172839506172839,0,0,0.06172839506172839,60.37037037037037,0)" xlink:href="#T"/></g><g id="B"><use transform="matrix(0.06172839506172839,0,0,0.06172839506172839,0,0)" xlink:href="#H"/><use transform="matrix(0.06172839506172839,0,0,0.06172839506172839,11.11111111111111,0)" xlink:href="#Z"/><use transform="matrix(0.06172839506172839,0,0,0.06172839506172839,17.28395061728395,0)" xlink:href="#M"/><use transform="matrix(0.06172839506172839,0,0,0.06172839506172839,29.629629629629626,0)" xlink:href="#H"/><use transform="matrix(0.06172839506172839,0,0,0.06172839506172839,40.74074074074073,0)" xlink:href="#Z"/><use transform="matrix(0.06172839506172839,0,0,0.06172839506172839,46.913580246913575,0)" xlink:href="#K"/><use transform="matrix(0.06172839506172839,0,0,0.06172839506172839,59.25925925925925,0)" xlink:href="#H"/></g><g id="C"><use transform="matrix(0.06172839506172839,0,0,0.06172839506172839,0,0)" xlink:href="#P"/><use transform="matrix(0.06172839506172839,0,0,0.06172839506172839,4.876543209876543,0)" xlink:href="#S"/><use transform="matrix(0.06172839506172839,0,0,0.06172839506172839,17.22222222222222,0)" xlink:href="#Z"/><use transform="matrix(0.06172839506172839,0,0,0.06172839506172839,23.39506172839506,0)" xlink:href="#V"/><use transform="matrix(0.06172839506172839,0,0,0.06172839506172839,35.74074074074074,0)" xlink:href="#U"/><use transform="matrix(0.06172839506172839,0,0,0.06172839506172839,41.91358024691358,0)" xlink:href="#O"/><use transform="matrix(0.06172839506172839,0,0,0.06172839506172839,46.79012345679013,0)" xlink:href="#L"/><use transform="matrix(0.06172839506172839,0,0,0.06172839506172839,59.135802469135804,0)" xlink:href="#O"/><use transform="matrix(0.06172839506172839,0,0,0.06172839506172839,64.01234567901234,0)" xlink:href="#H"/><use transform="matrix(0.06172839506172839,0,0,0.06172839506172839,75.12345679012346,0)" xlink:href="#ac"/><use transform="matrix(0.06172839506172839,0,0,0.06172839506172839,87.46913580246914,0)" xlink:href="#V"/><use transform="matrix(0.06172839506172839,0,0,0.06172839506172839,99.81481481481482,0)" xlink:href="#T"/><use transform="matrix(0.06172839506172839,0,0,0.06172839506172839,112.16049382716051,0)" xlink:href="#M"/><use transform="matrix(0.06172839506172839,0,0,0.06172839506172839,124.50617283950619,0)" xlink:href="#Z"/><use transform="matrix(0.06172839506172839,0,0,0.06172839506172839,130.67901234567904,0)" xlink:href="#I"/></g><path fill="#333" d="M141 0L90-78 38 0H4l68-98-65-92h35l48 74 47-74h35l-64 92 68 98h-35" id="ae"/><g id="D"><use transform="matrix(0.06172839506172839,0,0,0.06172839506172839,0,0)" xlink:href="#P"/><use transform="matrix(0.06172839506172839,0,0,0.06172839506172839,4.876543209876543,0)" xlink:href="#S"/><use transform="matrix(0.06172839506172839,0,0,0.06172839506172839,17.22222222222222,0)" xlink:href="#Z"/><use transform="matrix(0.06172839506172839,0,0,0.06172839506172839,23.39506172839506,0)" xlink:href="#V"/><use transform="matrix(0.06172839506172839,0,0,0.06172839506172839,35.74074074074074,0)" xlink:href="#I"/><use transform="matrix(0.06172839506172839,0,0,0.06172839506172839,48.08641975308642,0)" xlink:href="#ae"/><use transform="matrix(0.06172839506172839,0,0,0.06172839506172839,59.19753086419753,0)" xlink:href="#Q"/><use transform="matrix(0.06172839506172839,0,0,0.06172839506172839,71.54320987654322,0)" xlink:href="#O"/><use transform="matrix(0.06172839506172839,0,0,0.06172839506172839,76.41975308641976,0)" xlink:href="#J"/><use transform="matrix(0.06172839506172839,0,0,0.06172839506172839,83.76543209876544,0)" xlink:href="#I"/><use transform="matrix(0.06172839506172839,0,0,0.06172839506172839,96.11111111111113,0)" xlink:href="#V"/><use transform="matrix(0.06172839506172839,0,0,0.06172839506172839,108.45679012345681,0)" xlink:href="#T"/><use transform="matrix(0.06172839506172839,0,0,0.06172839506172839,120.8024691358025,0)" xlink:href="#M"/><use transform="matrix(0.06172839506172839,0,0,0.06172839506172839,133.14814814814818,0)" xlink:href="#Z"/><use transform="matrix(0.06172839506172839,0,0,0.06172839506172839,139.32098765432102,0)" xlink:href="#I"/></g><g id="E"><use transform="matrix(0.06172839506172839,0,0,0.06172839506172839,0,0)" xlink:href="#L"/><use transform="matrix(0.06172839506172839,0,0,0.06172839506172839,12.345679012345679,0)" xlink:href="#M"/><use transform="matrix(0.06172839506172839,0,0,0.06172839506172839,24.691358024691358,0)" xlink:href="#N"/><use transform="matrix(0.06172839506172839,0,0,0.06172839506172839,43.148148148148145,0)" xlink:href="#I"/></g><g id="F"><use transform="matrix(0.06172839506172839,0,0,0.06172839506172839,0,0)" xlink:href="#R"/><use transform="matrix(0.06172839506172839,0,0,0.06172839506172839,15.987654320987653,0)" xlink:href="#O"/><use transform="matrix(0.06172839506172839,0,0,0.06172839506172839,20.864197530864196,0)" xlink:href="#L"/><use transform="matrix(0.06172839506172839,0,0,0.06172839506172839,33.20987654320987,0)" xlink:href="#L"/><use transform="matrix(0.06172839506172839,0,0,0.06172839506172839,45.55555555555555,0)" xlink:href="#I"/><use transform="matrix(0.06172839506172839,0,0,0.06172839506172839,57.90123456790123,0)" xlink:href="#J"/></g></defs></g></svg>